 http://desibbrg.org/images/66952052392581364616.gif 
http://desibbrg.org/images/10686368504177236254.png 
http://desibbrg.org/images/82873153676962196760.png 
http://desibbrg.org/images/71357194810829583361.png 
http://desibbrg.org/images/69645668452978506439.png

Media Info - 
Video
ID : 1
Format : AVC
Format/Info : Advanced Video Codec
Format profile : High@L4.1
Format settings, CABAC : Yes
Format settings, ReFrames : 8 frames
Codec ID : V_MPEG4/ISO/AVC
Duration : 2h 31mn
Bit rate : 1 837 Kbps
Width : 1 280 pixels
Height : 544 pixels
Display aspect ratio : 2.35:1
Frame rate : 24.000 fps
Color space : YUV
Chroma subsampling : 4:2:0
Bit depth : 8 bits
Scan type : Progressive
Bits/(Pixel*Frame) : 0.110
Stream size : 1.91 GiB (87%)
Writing library : x264 core 75 r1247 b3efbe5
Language : English
Default : Yes
Forced : No

Audio
ID : 2
Format : AC-3
Format/Info : Audio Coding 3
Mode extension : CM (complete main)
Codec ID : A_AC3
Duration : 2h 31mn
Bit rate mode : Constant
Bit rate : 224 Kbps
Channel(s) : 6 channels
Channel positions : Front: L C R, Side: L R, LFE
Sampling rate : 48.0 KHz
Bit depth : 16 bits
Compression mode : Lossy
Stream size : 243 MiB (11%)
Language : Hindi
Default : Yes
Forced : No

Ripper : NhaNc3

Seeding 24x7... Extreme Seeding...


Enjoy!
